<?xml version="1.0" standalone="no"?>
<!DOCTYPE svg PUBLIC "-//W3C//DTD SVG 20010904//EN"
 "http://www.w3.org/TR/2001/REC-SVG-20010904/DTD/svg10.dtd">
<svg version="1.0" xmlns="http://www.w3.org/2000/svg"
 width="840.000000pt" height="751.000000pt" viewBox="0 0 840.000000 751.000000"
 preserveAspectRatio="xMidYMid meet">
<metadata>
Created by potrace 1.16, written by Peter Selinger 2001-2019
</metadata>
<g transform="translate(0.000000,751.000000) scale(0.100000,-0.100000)"
fill="#000000" stroke="none">
<path d="M4105 7048 c-174 -12 -341 -74 -520 -193 -112 -74 -244 -192 -318
-283 -95 -117 -136 -160 -212 -222 -69 -55 -151 -114 -190 -136 -11 -6 -47
-27 -80 -45 -148 -85 -416 -188 -660 -255 -183 -50 -265 -79 -357 -125 -221
-112 -376 -266 -473 -472 -68 -144 -87 -224 -92 -409 -8 -232 21 -398 106
-615 62 -158 82 -283 82 -513 1 -255 -41 -533 -116 -784 -43 -146 -58 -250
-57 -411 0 -127 4 -165 25 -246 48 -183 124 -316 256 -450 193 -195 443 -310
811 -374 190 -33 379 -115 582 -251 149 -101 344 -263 478 -400 108 -109 227
-208 315 -260 389 -233 803 -204 1183 81 90 67 170 145 362 356 144 157 318
272 600 396 25 11 68 28 95 38 28 9 59 21 70 25 58 24 162 56 314 96 507 132
801 418 877 854 37 212 0 506 -94 740 -128 322 -120 784 23 1289 94 333 86
623 -24 858 -95 202 -264 374 -470 478 -182 92 -298 129 -536 171 -322 57
-648 253 -1025 619 -222 215 -282 262 -437 339 -168 84 -331 117 -518 104z
m310 -58 c103 -28 244 -94 342 -162 43 -29 152 -125 243 -213 317 -306 573
-489 828 -590 99 -39 268 -85 315 -85 16 0 64 -9 107 -20 709 -181 1028 -692
850 -1361 -91 -341 -121 -524 -127 -779 -7 -277 12 -390 116 -680 84 -236 101
-511 45 -739 -18 -75 -87 -228 -133 -294 -87 -127 -229 -245 -391 -327 -95
-48 -191 -80 -410 -140 -451 -124 -848 -346 -1036 -582 -375 -469 -847 -642
-1287 -472 -170 65 -299 156 -476 332 -393 391 -763 619 -1091 672 -238 38
-414 98 -580 198 -206 124 -359 305 -426 502 -46 137 -57 220 -51 389 6 161 8
173 86 476 113 440 117 861 11 1160 -18 50 -41 115 -51 145 -39 110 -60 241
-66 400 -4 133 -2 170 17 260 38 188 109 324 239 462 145 153 346 265 581 323
219 54 464 142 640 230 220 109 349 202 482 348 51 55 143 151 204 212 187
188 375 295 614 350 93 21 300 13 405 -15z"/>
<path d="M3940 6478 c-1202 -111 -2204 -1022 -2435 -2215 -60 -307 -60 -719 0
-1026 117 -606 438 -1160 906 -1561 735 -631 1736 -830 2648 -526 1118 372
1881 1427 1881 2600 0 414 -93 813 -280 1195 -297 609 -791 1075 -1421 1339
-394 165 -862 235 -1299 194z m530 -79 c250 -21 564 -105 815 -216 751 -334
1326 -1030 1509 -1829 55 -239 61 -299 60 -609 0 -253 -3 -305 -22 -413 -71
-399 -193 -714 -397 -1027 -470 -721 -1238 -1167 -2085 -1213 -582 -32 -1130
115 -1611 430 -824 540 -1290 1502 -1195 2468 92 940 640 1735 1481 2150 453
223 914 306 1445 259z"/>
<path d="M3905 5510 c-375 -68 -706 -239 -969 -504 -628 -630 -698 -1610 -165
-2321 285 -381 704 -632 1170 -700 136 -19 384 -19 513 0 388 58 719 227 1001
510 156 155 241 272 335 459 143 284 197 530 187 856 -6 197 -26 315 -84 495
-44 137 -153 351 -241 475 -87 123 -301 337 -422 423 -192 135 -445 245 -685
297 -149 33 -486 38 -640 10z m445 -61 c599 -61 1107 -407 1371 -932 332 -659
204 -1453 -319 -1974 -352 -351 -859 -538 -1338 -495 -161 15 -240 30 -226 44
6 6 29 5 63 -2 86 -17 175 -24 309 -23 118 1 144 3 230 18 19 3 49 7 67 8 18
1 38 8 44 14 7 7 25 13 40 13 15 0 31 5 34 10 3 6 19 10 35 10 16 0 32 5 35
10 3 6 16 10 29 10 12 0 31 7 42 15 10 8 26 15 35 15 9 0 28 9 42 20 14 11 32
20 40 20 8 0 20 7 27 15 7 8 21 15 31 15 11 0 28 9 39 20 11 11 26 20 33 21 6
0 35 12 62 27 l50 27 2 937 c1 756 4 942 15 964 l13 26 180 2 c172 2 181 1
214 -21 40 -27 52 -28 91 -8 57 29 66 87 22 136 -34 38 -82 42 -116 10 -22
-21 -22 -21 -1351 -21 -1236 0 -1330 1 -1347 17 -11 9 -35 17 -55 17 -27 0
-42 -7 -64 -32 -45 -51 -33 -104 31 -137 26 -13 34 -14 64 -1 18 8 36 19 40
24 4 7 70 11 170 11 l164 1 11 -31 c8 -22 11 -232 12 -668 1 -350 4 -770 8
-934 3 -163 3 -297 -1 -297 -17 0 -144 106 -233 195 -524 522 -653 1301 -324
1960 88 178 175 300 314 441 165 166 337 285 542 372 91 38 289 102 317 102 6
0 -4 -15 -21 -32 -58 -62 -65 -96 -34 -164 22 -49 68 -84 119 -91 28 -4 54 3
105 26 37 17 76 31 87 31 19 0 79 -45 70 -53 -34 -29 -467 -266 -635 -347
-138 -66 -346 -161 -385 -176 -152 -58 -302 -122 -303 -130 -3 -13 2634 -17
2647 -4 6 6 4 11 -5 13 -337 97 -603 228 -1181 582 l-98 60 6 61 c11 105 -34
186 -126 228 l-45 21 40 6 c65 10 156 10 265 -2z m-262 -48 c70 -36 112 -104
112 -180 0 -50 -13 -58 -46 -32 -35 28 -71 26 -140 -4 -63 -28 -129 -32 -158
-10 -82 62 -73 170 18 226 43 26 162 26 214 0z m214 -362 c26 -17 48 -33 48
-35 0 -6 -39 14 -73 39 -43 30 -43 13 0 -20 150 -116 479 -323 624 -392 72
-35 89 -51 51 -51 -23 0 -248 84 -346 129 -125 58 -214 120 -290 203 -36 39
-66 74 -66 79 0 20 -18 7 -25 -18 -3 -15 -16 -40 -27 -55 -11 -16 -17 -32 -14
-36 4 -3 10 -1 14 5 12 19 13 -130 1 -182 -15 -64 -37 -107 -52 -102 -7 2 -17
32 -23 66 -13 69 -4 136 22 176 9 14 14 25 11 25 -19 0 -40 -17 -59 -48 -81
-133 -180 -252 -232 -279 -50 -26 -166 -19 -166 10 1 6 40 31 88 54 111 53
160 92 227 183 31 40 69 84 85 98 17 14 30 30 30 36 0 37 84 146 113 146 6 0
32 -14 59 -31z m-162 -33 c0 -18 -122 -151 -205 -224 -161 -141 -351 -232
-486 -232 -94 0 -106 26 -26 55 218 76 477 223 637 358 70 60 80 65 80 43z
m135 -96 c3 -5 54 -44 113 -86 104 -76 319 -188 410 -215 41 -12 70 -34 59
-45 -3 -3 -41 2 -84 11 -43 10 -91 19 -108 22 -16 2 -39 8 -50 13 -11 4 -49
18 -85 30 -148 50 -251 138 -280 241 -8 27 -4 39 11 39 4 0 10 -4 14 -10z
m187 -272 c29 -14 65 -32 81 -39 40 -18 28 -34 -29 -36 -115 -5 -208 37 -243
110 -20 42 -28 97 -15 110 4 3 39 -22 79 -56 40 -34 97 -74 127 -89z m808
-112 c40 -13 -42 -14 -685 -13 l-730 2 683 2 c449 2 681 7 677 13 -8 13 1 12
55 -4z m-2126 -187 c14 -11 26 -25 26 -30 0 -5 -61 -9 -140 -9 -116 0 -142 3
-146 15 -15 39 1 45 119 45 100 0 117 -3 141 -21z m2364 8 c25 -29 -3 -36
-161 -39 -118 -2 -157 0 -157 9 0 7 12 19 28 27 36 20 274 23 290 3z m-368
-35 c-17 -21 -35 -54 -40 -73 -6 -21 -10 -293 -10 -701 l0 -667 -57 -34 c-88
-53 -220 -118 -318 -157 -139 -55 -411 -102 -552 -94 -279 14 -477 69 -757
208 l-141 71 -5 685 c-5 644 -6 687 -24 720 -10 19 -28 45 -39 58 l-20 22 997
0 997 0 -31 -38z m-1842 -1720 c-3 -219 -4 -227 -23 -227 -19 0 -20 8 -23 225
-1 123 0 230 3 238 3 10 10 10 25 2 20 -11 20 -18 18 -238z m1803 235 c-1 -4
-1 -110 -1 -237 0 -223 -1 -230 -20 -230 -11 0 -20 3 -20 8 0 4 -1 105 -1 225
-1 160 2 222 12 233 12 14 31 15 30 1z m-1740 -268 c0 -118 -1 -217 -1 -221 0
-5 -9 -8 -20 -8 -19 0 -20 7 -20 228 0 126 3 232 7 236 4 3 13 0 21 -7 11 -11
13 -58 13 -228z m1671 9 c2 -123 -1 -228 -5 -235 -5 -6 -15 -9 -23 -6 -11 4
-14 44 -14 227 0 123 3 226 7 229 3 4 12 7 19 7 10 0 14 -48 16 -222z m-1614
183 c10 -6 13 -56 13 -222 0 -118 0 -220 -1 -226 0 -15 -37 -18 -42 -3 -6 19
3 460 10 460 4 0 13 -4 20 -9z m1550 -232 c-3 -224 -3 -224 -25 -227 l-23 -3
0 225 c0 204 2 226 18 235 9 5 20 6 25 2 4 -4 6 -108 5 -232z m-1461 -32 c2
-186 1 -216 -13 -228 -34 -28 -39 7 -36 245 l3 228 22 -15 c21 -14 22 -20 24
-230z m1388 -3 c0 -222 -1 -229 -20 -229 -19 0 -20 8 -23 219 -2 156 1 223 9
233 30 35 34 6 34 -223z m-1324 -29 c0 -121 -1 -223 -1 -227 0 -14 -40 -9 -40
5 -1 11 0 438 0 461 0 5 9 2 21 -5 20 -14 21 -22 20 -234z m1257 5 c2 -225 -2
-256 -34 -243 -11 4 -14 44 -14 227 0 220 5 253 35 243 6 -2 11 -84 13 -227z
m-1194 194 c14 -14 16 -46 14 -237 -3 -208 -4 -222 -22 -225 -10 -2 -21 1 -25
6 -10 16 -1 472 9 472 5 0 16 -7 24 -16z m1119 -225 c0 -124 -3 -230 -6 -237
-4 -6 -14 -9 -22 -5 -13 4 -15 41 -15 227 0 218 5 253 33 243 5 -1 10 -104 10
-228z m-1044 197 c8 -9 11 -80 11 -229 -1 -177 -4 -218 -16 -228 -31 -25 -35
6 -35 235 0 124 1 228 1 231 0 11 28 4 39 -9z m979 -228 c-3 -225 -4 -233 -23
-233 -19 0 -20 8 -23 220 -1 121 0 225 2 232 3 7 15 13 26 13 20 0 20 -4 18
-232z m-910 210 c9 -9 12 -74 12 -229 0 -177 -3 -219 -15 -229 -31 -26 -35 -1
-35 236 0 240 3 257 38 222z m833 -232 c0 -125 -2 -231 -5 -233 -3 -3 -12 -3
-21 0 -13 6 -15 38 -15 230 0 123 3 227 7 231 4 4 13 5 21 4 11 -2 13 -46 13
-232z m-763 216 c9 -7 12 -61 10 -238 -3 -221 -4 -229 -23 -229 -19 0 -20 8
-23 225 -1 123 0 230 2 237 6 15 16 16 34 5z m692 -236 c0 -235 -4 -262 -34
-237 -11 9 -14 59 -14 229 0 119 3 222 5 229 3 7 14 13 24 13 18 0 19 -11 19
-234z m-615 -11 c0 -223 -1 -230 -20 -230 -19 0 -20 8 -23 233 l-2 233 22 -3
23 -3 0 -230z m543 0 c2 -224 -2 -265 -28 -239 -12 12 -16 447 -4 465 3 5 11
8 17 6 9 -3 13 -70 15 -232z m-470 -4 c2 -226 -2 -257 -34 -244 -12 4 -14 45
-14 232 0 125 3 231 7 235 4 4 14 5 23 4 13 -3 15 -34 18 -227z m400 -6 c2
-232 -2 -261 -33 -235 -13 10 -15 46 -15 229 0 215 5 248 35 238 6 -2 11 -86
13 -232z m-340 -7 c-3 -199 -5 -233 -18 -233 -13 0 -15 34 -18 233 -2 228 -2
232 18 232 20 0 20 -4 18 -232z m67 223 c10 -17 7 -453 -3 -463 -27 -27 -32 8
-32 231 0 125 3 231 7 234 9 10 21 9 28 -2z m73 -226 c2 -225 -2 -265 -29
-238 -11 11 -14 447 -3 465 3 5 11 7 17 5 9 -3 13 -70 15 -232z m70 -9 c-3
-223 -4 -231 -23 -231 -19 0 -20 8 -23 229 -2 234 0 252 35 239 11 -4 13 -49
11 -237z m60 236 c9 -7 12 -60 10 -233 -3 -216 -4 -224 -23 -224 -19 0 -20 8
-23 220 -1 121 0 225 2 232 6 15 16 16 34 5z m-1028 -227 c7 -8 20 -15 30 -15
9 0 25 -9 35 -20 10 -11 25 -20 32 -20 8 0 26 -9 40 -20 14 -11 34 -20 43 -20
10 0 23 -7 30 -15 7 -8 21 -15 32 -15 11 0 31 -9 45 -20 14 -11 29 -17 34 -14
5 2 21 -2 37 -10 16 -8 32 -13 35 -10 3 3 18 -1 34 -9 15 -9 40 -18 56 -22 28
-6 38 -25 13 -25 -68 0 -447 164 -521 225 -27 22 -28 24 -9 25 12 0 27 -7 34
-15z"/>
<path d="M4185 4147 c4 -22 2 -44 -6 -58 l-13 -24 -6 33 c-7 44 -23 45 -30 2
-4 -19 -12 -45 -18 -57 -7 -12 -12 -38 -12 -57 0 -28 6 -39 28 -53 15 -9 32
-23 39 -31 17 -20 57 -18 81 4 11 11 28 25 36 32 17 14 22 72 6 72 -5 0 -10
-4 -10 -9 0 -5 -21 -31 -47 -57 -48 -51 -48 -46 -1 20 36 50 36 96 0 160 -34
62 -56 73 -47 23z"/>
</g>
</svg>
